<svg xmlns="http://www.w3.org/2000/svg" xmlns:xlink="http://www.w3.org/1999/xlink" viewBox="0 0 400 300" data-imageid="report-analysis-3" imageName="Report analysis" class="illustrations_image" style="width: 219px;"><defs><linearGradient id="linear-gradient" x1="211.41" y1="226.03" x2="174.95" y2="249.98" gradientUnits="userSpaceOnUse"><stop offset="0" stop-color="gray"/><stop offset="1" stop-color="#fff"/></linearGradient><linearGradient id="linear-gradient-2" x1="289.92" y1="203.86" x2="252.2" y2="226.39" xlink:href="#linear-gradient"/></defs><title>a</title><g style="isolation:isolate"><g id="Layer_2" data-name="Layer 2"><polygon points="77.27 205.56 200.45 276.68 317.15 209.3 193.13 138.81 77.27 205.56" fill="#efefef"/><path d="M198.57,225.83c-7.89,4.6-32.32,17.16-44.46,24.09,9.19,5.58,20.6,11.92,21.64,12.53l41.78-26.68C215.4,234.65,208.4,230.69,198.57,225.83Z" fill="url(#linear-gradient)" style="mix-blend-mode:multiply"/><path d="M280.4,190.36c-14.73,8.59-25.26,14.36-47.92,27.3,17.15,10.42,30.44,20,32.37,21.14l50.92-29.89C311.82,206.83,298.74,199.43,280.4,190.36Z" fill="url(#linear-gradient-2)" style="mix-blend-mode:multiply"/><polygon points="51 98 182.71 29.09 194.65 125.13 65.25 196.46 51 98" fill="#f77e29" class="target-color"/><polygon points="86.05 168.54 79.04 118.93 85.14 116.23 92.03 165.32 86.05 168.54" fill="#fff"/><path d="M96.24,122.78l5.18,37.33-6,3.2L90.22,126C92.3,125,94.26,123.81,96.24,122.78Z" fill="#5ed18d"/><polygon points="124.31 145.61 117.68 96.66 123.83 94.05 130.34 142.48 124.31 145.61" fill="#fff"/><path d="M134.93,100.58l4.89,36.83-6,3.11-4.92-36.77C131,102.73,132.93,101.59,134.93,100.58Z" fill="#5ed18d"/><polygon points="158.64 125.86 152.36 77.5 158.56 74.97 164.72 122.81 158.64 125.86" fill="#fff"/><path d="M169.65,81.5l4.63,36.38-6.09,3-4.66-36.33C165.64,83.59,167.63,82.48,169.65,81.5Z" fill="#5ed18d"/><path d="M87.32,174.86q7.67-4.25,15.35-8.47c.79-.43-.14-1.68-.93-1.25q-7.69,4.22-15.36,8.47c-.79.44.15,1.69.94,1.25Z" fill="#f2f2f2"/><path d="M126.31,150.5q7.74-4.12,15.5-8.22c.8-.42-.13-1.66-.93-1.24q-7.76,4.09-15.5,8.21c-.8.43.13,1.67.93,1.24Z" fill="#f2f2f2"/><path d="M160.88,132q7.8-4,15.62-8c.81-.41-.12-1.64-.92-1.23q-7.82,4-15.62,8c-.8.41.12,1.65.92,1.23Z" fill="#f2f2f2"/><path d="M100.49,85.12,111,161.86c.06.44.77.44.71,0L101.21,85.14C101.15,84.71,100.43,84.68,100.49,85.12Z" fill="#f2f2f2"/><path d="M141.21,63.1l9.92,75.66c.06.43.77.44.72,0l-9.91-75.65C141.88,62.71,141.16,62.67,141.21,63.1Z" fill="#f2f2f2"/><polygon points="56.02 100.26 179.86 35.26 191.36 122.71 68.94 189.92 56.02 100.26" fill="none" stroke="#f2f2f2" stroke-miterlimit="10"/><polygon points="315.78 208.92 283.63 190.36 266.11 200.3 298.57 219.09 315.78 208.92" fill="#ffb164"/><polyline points="282 201.49 282 205.21 297.4 213.89 305.87 208.89 305.87 205.63" fill="#dbdbdb"/><polygon points="305.87 205.63 290.42 196.72 282 201.49 297.6 210.52 305.87 205.63" fill="#606060"/><polygon points="284.02 125.06 266.16 116.29 266.16 200.45 284.02 190.36 284.02 125.06" fill="#e87f18"/><polygon points="315.78 151.67 283.63 133.11 266.11 143.05 298.57 161.84 315.78 151.67" fill="#ffb164"/><polygon points="294.15 142.13 304.02 136.42 307.2 138.15 297.33 144.48 294.15 142.13" fill="#19847e"/><polygon points="297.19 143.68 297.19 156.19 307.2 150.61 307.2 138.15 297.19 143.68" fill="#04aaa8"/><polyline points="297.19 143.68 294.15 142.13 294.15 154.51 297.19 156.19" fill="#2252a4"/><polygon points="315.83 124.91 283.68 106.35 266.16 116.29 298.63 135.08 315.83 124.91" fill="#ffb164"/><polygon points="315.83 180.11 283.68 161.55 266.16 171.49 298.63 190.28 315.83 180.11" fill="#ffb164"/><polygon points="298.63 135.08 315.83 124.91 315.78 208.92 298.57 219.09 298.63 135.08" fill="#ff9c28"/><polygon points="268.92 159 277.6 153.97 280.4 155.49 271.71 161.06 268.92 159" fill="#19847e"/><polygon points="271.59 160.36 271.59 171.36 280.4 166.45 280.4 155.49 271.59 160.36" fill="#04aaa8"/><polyline points="271.59 160.36 268.92 159 268.92 169.89 271.59 171.36" fill="#2252a4"/><polygon points="272.2 159.62 282.06 153.91 285.25 155.63 275.37 161.96 272.2 159.62" fill="#19847e"/><polygon points="275.24 161.17 275.24 173.68 285.25 168.09 285.25 155.63 275.24 161.17" fill="#04aaa8"/><polyline points="275.24 161.17 272.2 159.62 272.2 172 275.24 173.68" fill="#2252a4"/><path d="M208.43,216.26s1.81,9.88.36,10.88c0,0-9.33-3.72-10.83-.15-1.18,2.82,5.5,5.86,9,7.08s10.18,3.26,11.5.47-3.29-23.7-3.29-23.7" fill="#352118"/><path d="M205.2,223.51c-1.32-21.11-5.35-76.86-.31-90.38,6.35-17.05,14.26-2.49,14.84,5.2.54,7.09-.57,76.78-.72,86.77C217.41,230.45,207.51,229.08,205.2,223.51Z" fill="#487a31"/><polygon points="170.9 111.04 165.43 87.53 180.88 80.3 188.47 104.2 170.9 111.04" fill="#352118"/><path d="M189.16,96.11s-6.56-7.83-8.06-6.45,2.3,4.91,2.3,4.91a5.12,5.12,0,0,0,.88,3.9c1.38,2.18,3.39,3.3,4.19,3.05s3.84,2.08,3.84,2.08l4.07-3.73Z" fill="#ffc799"/><path d="M187.66,102.74s-1.19-5.69,3.4-8.18l10.54,4.09-7,7.6Z" fill="#47bf78"/><path d="M176.07,109.08s-1.67-3.3-1.23-5,2.57-4.13,1.79-5.36-3.57,2.54-4.13,3.05-5.15-5.4-5.15-5.4-1.52,6.3-1,9.46,4.8,4.36,6.36,7.39" fill="#ffc799"/><path d="M192.49,223.32s1.81,9.88.36,10.88c0,0-9.33-3.72-10.83-.15-1.18,2.82,5.5,5.86,9,7.08s10.18,3.26,11.5.47-3.29-23.7-3.29-23.7" fill="#352118"/><path d="M187.66,227.26c.27-21.15.45-77,6.49-90.14,7.62-16.52,15.67.24,15.67,8,0,7.11-5.82,77.8-6.72,87.75C197.74,235.42,189.55,233,187.66,227.26Z" fill="#487a31"/><path d="M194,137.92c-.89-8.51-3.24-34,.09-36.41,6.08-4.5,20.92-13.23,24-4.91,2.42,6.45,1.83,25.88.37,36.56C211.32,137.41,202.11,140,194,137.92Z" fill="#5ed18d"/><path d="M203,89.46c.16.24,0,6.65,0,6.65s2.33.17,6.76-2.88l-.36-6.77Z" fill="#ffc799"/><path d="M199.18,76.82a55.26,55.26,0,0,1-.52,8.29c-.82,3.84,0,7.61,3.72,8.78,3.37,1.06,9.86-7.08,8.68-10.54S205.5,72,199.18,76.82Z" fill="#ffc799"/><path d="M215.63,74.84a6.06,6.06,0,0,0-9.21-4.57,6.35,6.35,0,0,0-4.72-.5,5,5,0,0,0-3.44,3.42,3.19,3.19,0,0,0-.06.42,4.33,4.33,0,0,0-.61,2.88,5.16,5.16,0,0,0,2.3,3.62,4.62,4.62,0,0,0,.79.49,11,11,0,0,0,1.8.76,2.5,2.5,0,0,0,.58.11,1.9,1.9,0,0,1,1.09.81,3.57,3.57,0,0,1,.19.55c-.48,2.82-1.11,6.92,1.22,8.76,1.81,1.43,4.19.91,6.05-.31l.26-.12A4.38,4.38,0,0,0,213.19,90c.14-.15.27-.3.39-.46l.06-.09C218.13,85.15,222.19,77.55,215.63,74.84Z" fill="#352118"/><path d="M194,101.51s-2.58,2.07-4.93,7.85c-2.17,5.33-7.31,4.65-10.7-1.65a2,2,0,0,0-2.69-.87c-2,1.07-5,3-5.17,5.48-.25,3.7,11.14,14,18.61,15.22S202.3,117,202.3,117" fill="#5ed18d"/><path d="M295.15,110.91a13.62,13.62,0,0,1-8.08-3.11v8.58A8.91,8.91,0,0,0,296,125.3h0a8.91,8.91,0,0,0,8.91-8.91v-8.73C301.84,108.9,298.39,111.19,295.15,110.91Z" fill="#f77e29" class="target-color"/><ellipse cx="295.97" cy="107.75" rx="8.91" ry="4.72" fill="#5ed18d"/><path d="M296,108.55s-6.06-.89-7.66-10.69C288.31,97.86,293.47,100.71,296,108.55Z" fill="#5ed18d"/><path d="M296.86,107.3s-6.95-12.47,0-20.84A34.94,34.94,0,0,1,296.86,107.3Z" fill="#5ed18d"/><path d="M296,99.46s-6.06-.89-7.66-10.69C288.31,88.77,293.47,91.62,296,99.46Z" fill="#5ed18d"/><path d="M296.7,103.46s-1.52-5.93,6.9-11.19C303.61,92.26,303,98.13,296.7,103.46Z" fill="#5ed18d"/><ellipse cx="295.97" cy="107.75" rx="8.91" ry="4.72" fill="#146666"/><path d="M296,108.55s-6.06-.89-7.66-10.69C288.31,97.86,293.47,100.71,296,108.55Z" fill="#5ed18d"/><path d="M296.86,107.3s-6.95-12.47,0-20.84A34.94,34.94,0,0,1,296.86,107.3Z" fill="#5ed18d"/><path d="M296,99.46s-6.06-.89-7.66-10.69C288.31,88.77,293.47,91.62,296,99.46Z" fill="#5ed18d"/><path d="M296.7,103.46s-1.52-5.93,6.9-11.19C303.61,92.26,303,98.13,296.7,103.46Z" fill="#5ed18d"/></g></g></svg>